<svg viewBox="0 0 24 24" fill="none" xmlns="http://www.w3.org/2000/svg">
  <path
    d="M16.9961 1.06644C18.5691 1.08022 20.0741 1.7119 21.1865 2.82425C22.2987 3.93667 22.9297 5.44169 22.9433 7.01468C22.9569 8.58755 22.3524 10.1029 21.2597 11.2344L18.247 14.2471C17.6388 14.8555 16.9066 15.3263 16.1006 15.627C15.2945 15.9276 14.4332 16.0507 13.5752 15.9893C12.717 15.9278 11.8819 15.683 11.1269 15.2705C10.3719 14.858 9.71451 14.2876 9.19919 13.5987C8.86856 13.1564 8.95915 12.53 9.40134 12.1993C9.84357 11.8686 10.47 11.9592 10.8007 12.4014C11.1443 12.8606 11.5826 13.2407 12.0859 13.5157C12.5892 13.7906 13.1458 13.9541 13.7177 13.9952C14.2897 14.0361 14.8641 13.9533 15.4013 13.753C15.9387 13.5525 16.4275 13.2387 16.833 12.833L19.8203 9.84574C20.5489 9.09133 20.9524 8.08007 20.9433 7.03129C20.9341 5.98283 20.5137 4.97982 19.7724 4.23832C19.0308 3.49673 18.0272 3.07561 16.9785 3.06644C15.9297 3.05733 14.9194 3.4609 14.165 4.18949L14.164 4.18851L12.455 5.88871C12.0634 6.27809 11.4304 6.27646 11.041 5.8848C10.6516 5.49314 10.6532 4.86011 11.0449 4.47074L12.7646 2.76078C12.768 2.75741 12.7719 2.75433 12.7754 2.75101C13.907 1.65806 15.4229 1.05277 16.9961 1.06644Z"
  />
  <path
    d="M10.4247 8.01052C11.2828 8.07197 12.1179 8.3168 12.8729 8.72927C13.6279 9.14177 14.2853 9.71219 14.8006 10.4011C15.1314 10.8433 15.0414 11.4697 14.5995 11.8006C14.1573 12.1313 13.5299 12.0415 13.1991 11.5994C12.8555 11.1401 12.4173 10.7592 11.9139 10.4841C11.4107 10.2093 10.8541 10.0456 10.2821 10.0047C9.71009 9.96369 9.1358 10.0465 8.59849 10.2468C8.06109 10.4473 7.57236 10.7611 7.16685 11.1668L4.17857 14.1541C3.44997 14.9085 3.04739 15.9198 3.0565 16.9685C3.06567 18.0172 3.48679 19.0209 4.22838 19.7625C4.96988 20.5038 5.97289 20.9242 7.02134 20.9334C8.07013 20.9425 9.08139 20.539 9.8358 19.8103L11.5331 18.1131C11.9236 17.7225 12.5566 17.7225 12.9471 18.1131C13.3376 18.5036 13.3376 19.1366 12.9471 19.5271L11.2245 21.2498C10.093 22.3424 8.5776 22.9469 7.00474 22.9334C5.43175 22.9197 3.92672 22.2887 2.81431 21.1765C1.70196 20.0642 1.07028 18.5591 1.0565 16.9861C1.04283 15.4129 1.64812 13.897 2.74107 12.7654L2.75279 12.7527L5.75279 9.7527C6.36103 9.14429 7.09323 8.6735 7.89927 8.37282C8.70528 8.07219 9.56662 7.94909 10.4247 8.01052Z"
  />
</svg>