<?xml version="1.0" encoding="UTF-8"?><svg id="Layer_2" xmlns="http://www.w3.org/2000/svg" viewBox="0 0 445.33 242.61"><defs><style>.cls-1{fill:#3188c9;stroke-width:0px;}</style></defs><g id="_圖層_1"><path class="cls-1" d="m347.61,80.96v-.02c-1.1-1.34-.89-3.3.45-4.39,1.34-1.08,3.3-.88,4.39.46.11.14.21.29.3.44l.02.04v.02c.84,1.51.29,3.4-1.22,4.23-1.34.74-2.99.38-3.92-.77l-.02-.02Z"/><path class="cls-1" d="m339.16,71.65h-.02c-1.91-1.42-2.32-4.12-.91-6.03,1.41-1.92,4.11-2.32,6.02-.91.16.12.3.24.44.37l.05.05.02.02c1.7,1.66,1.73,4.38.07,6.08-1.52,1.55-3.93,1.71-5.63.46l-.03-.03Z"/><path class="cls-1" d="m327.09,62.92h-.02c-2.73-1.02-4.12-4.06-3.11-6.79,1.01-2.73,4.05-4.12,6.78-3.11.22.08.43.18.63.28l.08.04h.02c2.57,1.38,3.53,4.58,2.16,7.15-1.26,2.35-4.05,3.36-6.48,2.45l-.06-.02Z"/><path class="cls-1" d="m311.49,56.66h-.02c-3.33-.4-5.71-3.42-5.32-6.75.39-3.33,3.41-5.71,6.75-5.32.19.02.37.05.55.09h.06s.02.02.02.02c3.28.7,5.36,3.93,4.66,7.21-.66,3.08-3.55,5.11-6.62,4.75h-.08Z"/><path class="cls-1" d="m293.89,55.11h-.02c-3.72.36-7.03-2.37-7.39-6.09-.36-3.72,2.37-7.03,6.09-7.39.2-.02.39-.03.58-.03h.08c3.74-.03,6.79,2.97,6.82,6.71.03,3.53-2.65,6.45-6.09,6.79h-.08Z"/><path class="cls-1" d="m272.84,57.29c-4.01,0-7.26-3.25-7.26-7.26s3.25-7.26,7.26-7.26,7.26,3.25,7.26,7.26-3.25,7.26-7.26,7.26"/><path class="cls-1" d="m272.84,57.29c-4.01,0-7.26-3.25-7.26-7.26s3.25-7.26,7.26-7.26,7.26,3.25,7.26,7.26-3.25,7.26-7.26,7.26"/><path class="cls-1" d="m254.43,38.33l-.02-.02c-3.06-3.03-3.08-7.96-.06-11.02,3.03-3.06,7.96-3.08,11.02-.06.07.07.14.15.21.22l.04.04.02.03c2.93,3.16,2.74,8.09-.42,11.01-3.07,2.84-7.82,2.74-10.76-.17l-.04-.04Z"/><path class="cls-1" d="m239.2,26.51h-.02c-3.83-2.26-5.11-7.18-2.86-11.01,2.24-3.83,7.17-5.11,10.99-2.86.02.01.09.05.11.07l.03.02c3.79,2.3,5,7.24,2.7,11.04-2.28,3.76-7.17,4.96-10.94,2.75"/><path class="cls-1" d="m221.47,19.08h-.03c-4.37-1.2-6.95-5.71-5.76-10.08,1.19-4.38,5.7-6.95,10.08-5.76.03,0,.1.03.13.04h.03c4.35,1.27,6.86,5.82,5.61,10.17-1.25,4.31-5.74,6.81-10.06,5.64"/><path class="cls-1" d="m199.43,17.26h-.03c-4.77-.14-8.52-4.11-8.38-8.88C191.16,3.66,195.08-.06,199.78,0h.03c4.77.07,8.58,3.98,8.51,8.75-.07,4.77-3.98,8.58-8.75,8.51-.03,0-.12,0-.15,0"/><path class="cls-1" d="m178.32,19.72h-.02c-4.27.96-8.51-1.74-9.46-6.01-.94-4.23,1.71-8.43,5.9-9.43h.03c4.26-1.02,8.53,1.6,9.55,5.86,1.02,4.26-1.61,8.53-5.87,9.55-.03,0-.11.02-.13.03"/><path class="cls-1" d="m160.62,27.05h-.02s-.04.03-.04.03c-3.69,1.84-8.17.34-10.01-3.34-1.78-3.57-.42-7.9,3.02-9.84h.03s.03-.03.03-.03c3.59-2.02,8.14-.75,10.17,2.84,2.02,3.59.75,8.14-2.84,10.17-.1.06-.23.12-.33.17"/><path class="cls-1" d="m146.05,38.71l-.02.02-.05.04c-2.79,2.61-7.17,2.46-9.77-.33-2.47-2.64-2.45-6.72-.08-9.36l.02-.02.04-.05c2.56-2.84,6.94-3.06,9.77-.5,2.84,2.56,3.06,6.94.5,9.77-.13.14-.27.29-.41.42"/><path class="cls-1" d="m136.52,54v.02s-.04.05-.04.05c-1.46,2.99-5.08,4.23-8.07,2.77-2.83-1.39-4.08-4.71-2.98-7.59v-.03s.03-.05.03-.05c1.2-3.11,4.7-4.65,7.81-3.45,3.11,1.2,4.66,4.7,3.45,7.81-.06.16-.14.33-.21.48"/><path class="cls-1" d="m151.98,183.78c0,8.56-1.47,16.44-4.41,23.63-2.94,7.19-7.03,13.4-12.26,18.63-5.23,5.23-11.42,9.3-18.58,12.21-7.16,2.91-14.95,4.36-23.38,4.36h-34.51c-8.43,0-16.24-1.45-23.43-4.36-7.19-2.91-13.4-6.98-18.63-12.21-5.23-5.23-9.33-11.44-12.31-18.63-2.97-7.19-4.46-15.07-4.46-23.63v-26.87c0-8.5,1.49-16.36,4.46-23.58,2.97-7.22,7.08-13.43,12.31-18.63,5.23-5.2,11.44-9.26,18.63-12.21,7.19-2.94,15-4.41,23.43-4.41h34.51c8.43,0,16.23,1.47,23.38,4.41,7.16,2.94,13.35,7.01,18.58,12.21,5.23,5.2,9.32,11.41,12.26,18.63,2.94,7.22,4.41,15.08,4.41,23.58v26.87Zm-25.49-26.87c0-5.03-.8-9.59-2.4-13.68-1.6-4.08-3.86-7.58-6.76-10.49-2.91-2.91-6.41-5.16-10.49-6.77-4.09-1.6-8.58-2.4-13.48-2.4h-34.51c-4.97,0-9.5.8-13.58,2.4-4.09,1.6-7.6,3.86-10.54,6.77-2.94,2.91-5.21,6.41-6.81,10.49-1.6,4.09-2.4,8.64-2.4,13.68v26.87c0,5.03.8,9.59,2.4,13.68,1.6,4.09,3.87,7.58,6.81,10.49,2.94,2.91,6.45,5.17,10.54,6.77,4.08,1.6,8.61,2.4,13.58,2.4h34.32c4.97,0,9.5-.8,13.58-2.4,4.09-1.6,7.6-3.86,10.54-6.77,2.94-2.91,5.21-6.4,6.81-10.49,1.6-4.09,2.4-8.65,2.4-13.68v-26.87Z"/><path class="cls-1" d="m443.47,185.98c-1.24-4.05-2.93-7.63-5.05-10.75-2.13-3.12-4.56-5.79-7.3-8.02-2.74-2.22-5.64-4.07-8.68-5.53-3.04-1.46-6.09-2.54-9.16-3.24s-5.98-1.08-8.72-1.14h-42.47c-4.84,0-8.61-1.44-11.32-4.33-2.71-2.89-4.07-6.82-4.07-11.8s1.36-9.73,4.07-12.72c2.71-2.99,6.48-4.48,11.32-4.48h70.4v-25.89h-70.4c-4.12,0-8.56.75-13.33,2.24-4.77,1.49-9.2,3.92-13.28,7.27-4.08,3.35-7.48,7.7-10.19,13.04-2.71,5.34-4.07,12.77-4.07,20.53s1.36,14.34,4.07,19.72c2.71,5.38,6.11,9.73,10.19,13.04,4.08,3.32,8.51,5.73,13.28,7.22,4.77,1.49,9.21,2.24,13.33,2.24h42.27c2.35,0,4.49.4,6.42,1.19,1.93.8,3.56,1.93,4.9,3.39,1.34,1.46,2.37,3.19,3.09,5.18.72,1.99,1.08,4.18,1.08,6.57,0,4.91-1.36,9.7-4.07,12.62-2.71,2.92-6.52,4.38-11.42,4.38h-73.81v25.89h73.81c2.75,0,5.67-.33,8.77-1,3.1-.66,6.16-1.69,9.16-3.09,3-1.39,5.91-3.19,8.72-5.38,2.81-2.19,5.26-4.84,7.35-7.97,2.09-3.12,3.77-6.72,5.05-10.8,1.27-4.08,1.91-9.55,1.91-14.66s-.62-9.69-1.86-13.74"/><path class="cls-1" d="m318.49,112.77c0-8.11-6.57-14.68-14.68-14.68-5.44,0-10.18,2.97-12.72,7.36h-.01s-54.24,94.27-54.24,94.27h-.29l-54.24-94.27h-.01c-2.54-4.39-7.27-7.36-12.72-7.36-8.11,0-14.68,6.57-14.68,14.68,0,.02,0,.04,0,.06h0v129.78h25.48v-91.12l43.56,76.29h.02c2.53,4.41,7.28,7.39,12.73,7.39s10.2-2.98,12.73-7.39h.01,0s.01,0,.01,0l43.56-76.29v91.12h25.48V112.83h0s0-.04,0-.06Z"/></g></svg>