<?xml version="1.0" encoding="UTF-8"?><svg id="Layer_1" xmlns="http://www.w3.org/2000/svg" viewBox="0 0 178.28 26.08"><defs><style>.cls-1{fill:#307bbf;}.cls-1,.cls-2{stroke-width:0px;}.cls-2{fill:#8ab5e1;}</style></defs><path class="cls-2" d="m27.6,11.56c0,.69-.07,1.38-.2,2.05l-2.02,11.46c-.04.18-.15.34-.32.49-.17.15-.34.22-.52.22h-4.07c-.18,0-.31-.06-.4-.17-.09-.11-.13-.25-.13-.4v-.13l2.02-11.46c.04-.29.08-.55.12-.79.03-.24.05-.45.05-.66,0-.47-.12-.81-.37-1.03s-.71-.32-1.38-.32c-.27,0-.66.03-1.18.1-.52.07-1.03.21-1.55.44,0,.38-.02.76-.07,1.13-.04.37-.1.75-.17,1.13l-2.02,11.46c-.04.18-.15.34-.3.49-.16.15-.32.22-.5.22h-4.07c-.18,0-.32-.06-.42-.17-.1-.11-.15-.26-.15-.44v-.1l2.02-11.46c.04-.31.09-.6.13-.86.04-.26.07-.5.07-.72,0-.38-.09-.68-.27-.89-.18-.21-.54-.32-1.08-.32-.43,0-.91.1-1.45.3-.54.2-1.08.44-1.61.71l-2.32,13.25c-.04.18-.15.34-.3.49-.16.15-.33.22-.5.22H.57c-.18,0-.32-.06-.42-.17-.1-.11-.15-.26-.15-.44v-.1L3.16,7.19c.04-.18.14-.34.29-.47.15-.13.31-.2.49-.2h3.66c.38,0,.57.19.57.57v.1l-.13.77c.67-.45,1.39-.85,2.17-1.19.77-.35,1.63-.52,2.57-.52s1.79.14,2.4.42c.62.28,1.12.64,1.5,1.09.99-.56,1.94-.95,2.86-1.18.92-.22,1.95-.34,3.09-.34.94,0,1.73.14,2.35.42.63.28,1.14.67,1.53,1.16.39.49.67,1.06.84,1.7.17.64.25,1.32.25,2.03h0Zm20.1,1.48c0,.31-.02.67-.07,1.06-.04.39-.09.69-.13.89l-.44,2.35c-.54,2.87-1.59,5.04-3.14,6.52-1.56,1.48-3.83,2.22-6.81,2.22-1.14,0-2.15-.17-3.03-.52-.87-.35-1.61-.82-2.22-1.43-.61-.61-1.06-1.33-1.36-2.17-.3-.84-.45-1.75-.45-2.74,0-.31.01-.63.03-.94.02-.31.07-.63.13-.94l.44-2.35c.56-3.05,1.66-5.27,3.29-6.66,1.64-1.39,3.85-2.08,6.66-2.08,2.29,0,4.04.62,5.26,1.85,1.22,1.23,1.83,2.88,1.83,4.94h0Zm-5.45.4c0-1.7-.82-2.55-2.45-2.55-.99,0-1.79.31-2.4.94-.62.63-1.06,1.68-1.33,3.16l-.44,2.35c-.04.31-.08.6-.12.86-.03.26-.05.51-.05.76,0,.87.2,1.51.61,1.92.4.4,1.03.6,1.88.6,1.1,0,1.93-.35,2.49-1.04.56-.69.96-1.73,1.21-3.09l.44-2.35c.11-.63.17-1.14.17-1.55h0Zm23.33-6.08c0,.13-.01.24-.03.3l-.44,2.49c-.05.18-.11.36-.18.55-.08.19-.21.4-.39.62l-8.37,9.51c-.09.09-.13.17-.13.24,0,.09.07.13.2.13h6.39c.34,0,.5.15.5.44v.1l-.57,3.36c-.04.18-.15.34-.3.47-.16.13-.33.2-.5.2h-12.61c-.27,0-.5-.06-.69-.17-.19-.11-.29-.32-.29-.64,0-.13.01-.24.03-.3l.37-2.15c.04-.31.12-.54.23-.69.11-.15.27-.34.47-.59l8.77-9.95c.09-.09.13-.18.13-.27s-.07-.13-.2-.13h-6.49c-.31,0-.47-.15-.47-.44v-.1l.57-3.16c.04-.18.14-.34.29-.47.15-.13.31-.2.49-.2h12.27c.27,0,.49.06.67.18.18.12.27.34.27.66h0Zm11.36-1.11c1.14,0,2.31.07,3.51.2,1.2.13,2.35.35,3.45.64.38.11.63.22.76.34.12.11.16.34.12.67l-2.96,17.01c-.04.18-.12.34-.22.47-.1.13-.29.2-.55.2h-3.43c-.18,0-.33-.06-.45-.17-.12-.11-.16-.28-.12-.5l.13-.97c-.92.72-1.79,1.22-2.62,1.51-.83.29-1.69.44-2.59.44-1.01,0-1.87-.18-2.59-.54-.72-.36-1.3-.83-1.75-1.43-.45-.59-.78-1.28-.99-2.05-.21-.77-.32-1.59-.32-2.44,0-.31.02-.63.05-.94.03-.31.07-.63.12-.94.07-.49.15-.94.24-1.34.07-.36.12-.71.17-1.04.04-.34.09-.59.13-.77.52-2.94,1.64-5.06,3.36-6.37,1.73-1.31,3.91-1.97,6.55-1.97h0Zm1.88,4.67c-.31-.05-.71-.09-1.18-.13s-.94-.07-1.41-.07c-1.21,0-2.09.35-2.64,1.04-.55.69-.95,1.73-1.19,3.09l-.6,3.53c-.07.38-.1.75-.1,1.11,0,.56.13,1.04.39,1.45.26.4.77.6,1.53.6.58,0,1.18-.12,1.8-.35.62-.24,1.2-.51,1.76-.82l1.65-9.45Z"/><path class="cls-1" d="m107.5,6.25c0,.7-.08,1.38-.24,2.07-.16.68-.39,1.33-.71,1.93-.31.6-.72,1.15-1.21,1.65-.49.49-1.08.89-1.75,1.18.74.45,1.29,1.04,1.66,1.78.37.74.55,1.5.55,2.29,0,1.75-.35,3.2-1.06,4.35-.71,1.15-1.63,2.07-2.77,2.76-1.14.68-2.43,1.16-3.87,1.43-1.43.27-2.88.4-4.34.4-.56,0-1.13-.01-1.71-.03-.58-.02-1.15-.05-1.71-.08-.56-.03-1.08-.07-1.55-.12-.47-.05-.86-.1-1.18-.17-.54-.11-.93-.26-1.18-.45s-.37-.52-.37-.99c0-.11,0-.23.02-.35.01-.12.03-.25.05-.39l3.6-20.44c.13-.76.36-1.29.69-1.58.32-.29.82-.49,1.5-.61.29-.04.68-.09,1.16-.13.48-.04,1-.08,1.56-.12.56-.03,1.14-.06,1.73-.08.59-.02,1.16-.03,1.7-.03,1.39,0,2.66.11,3.82.32,1.15.21,2.15.55,2.98,1.01.83.46,1.47,1.05,1.93,1.78.46.73.69,1.61.69,2.64h0Zm-5.65.94c0-.74-.32-1.25-.98-1.55-.65-.29-1.74-.44-3.26-.44h-1.29c-.26,0-.5,0-.74.02-.24.01-.41.02-.52.02l-1.04,5.82h3.76c1.28,0,2.27-.31,2.99-.94.72-.63,1.08-1.6,1.08-2.92h0Zm-1.65,10.19c0-.65-.23-1.2-.69-1.65-.46-.45-1.27-.67-2.44-.67h-3.76l-1.11,6.29h.59c.26,0,.53,0,.81.02.28.01.55.02.81.02h.56c.69,0,1.36-.05,2-.15.64-.1,1.2-.3,1.68-.59.48-.29.86-.7,1.14-1.23.28-.53.42-1.2.42-2.03h0Zm26.12-4.34c0,.31-.02.67-.07,1.06-.04.39-.09.69-.13.89l-.44,2.35c-.54,2.87-1.59,5.04-3.14,6.52-1.56,1.48-3.83,2.22-6.81,2.22-1.14,0-2.15-.17-3.03-.52-.87-.35-1.61-.82-2.22-1.43-.61-.61-1.06-1.33-1.36-2.17-.3-.84-.45-1.75-.45-2.74,0-.31.01-.63.03-.94.02-.31.07-.63.13-.94l.44-2.35c.56-3.05,1.66-5.27,3.29-6.66,1.64-1.39,3.85-2.08,6.66-2.08,2.29,0,4.04.62,5.26,1.85,1.22,1.23,1.83,2.88,1.83,4.94h0Zm-5.45.4c0-1.7-.82-2.55-2.45-2.55-.99,0-1.79.31-2.4.94-.62.63-1.06,1.68-1.33,3.16l-.44,2.35c-.04.31-.08.6-.12.86-.03.26-.05.51-.05.76,0,.87.2,1.51.61,1.92.4.4,1.03.6,1.88.6,1.1,0,1.93-.35,2.49-1.04.56-.69.96-1.73,1.21-3.09l.44-2.35c.11-.63.17-1.14.17-1.55h0Zm25.28-.4c0,.31-.02.67-.07,1.06-.04.39-.09.69-.13.89l-.44,2.35c-.54,2.87-1.58,5.04-3.14,6.52-1.56,1.48-3.83,2.22-6.81,2.22-1.14,0-2.15-.17-3.03-.52-.87-.35-1.61-.82-2.22-1.43-.61-.61-1.06-1.33-1.36-2.17-.3-.84-.45-1.75-.45-2.74,0-.31.01-.63.03-.94.02-.31.07-.63.13-.94l.44-2.35c.56-3.05,1.66-5.27,3.29-6.66,1.64-1.39,3.85-2.08,6.66-2.08,2.29,0,4.04.62,5.26,1.85,1.22,1.23,1.83,2.88,1.83,4.94h0Zm-5.45.4c0-1.7-.82-2.55-2.45-2.55-.99,0-1.79.31-2.4.94-.62.63-1.06,1.68-1.33,3.16l-.44,2.35c-.04.31-.08.6-.12.86-.03.26-.05.51-.05.76,0,.87.2,1.51.6,1.92.4.4,1.03.6,1.88.6,1.1,0,1.93-.35,2.49-1.04.56-.69.96-1.73,1.21-3.09l.44-2.35c.11-.63.17-1.14.17-1.55h0Zm26.96-6.62c0,.13-.07.27-.2.4l-8.07,8.5,4.74,9.35c.07.13.07.29.02.45-.06.17-.21.25-.45.25h-4.94c-.18,0-.34-.07-.49-.2-.15-.13-.26-.3-.35-.5l-3.43-7.67-1.34,7.67c-.04.18-.15.34-.3.49-.16.15-.33.22-.5.22h-4.07c-.18,0-.33-.06-.45-.17-.12-.11-.16-.29-.12-.54l4.3-24.4c.04-.18.13-.34.25-.47.12-.13.31-.2.55-.2h4.07c.27,0,.44.07.52.2.08.13.1.29.05.47l-2.42,13.61,6.15-7.26c.18-.2.35-.34.52-.4.17-.07.32-.1.45-.1h5.08c.29,0,.44.1.44.3Z"/><path class="cls-2" d="m171.53,4.67s-.03.06-.05.09c-.03.03-.06.04-.09.04h-.35s-.06-.01-.08-.04c-.02-.03-.02-.05-.01-.09l.72-4.13h-1.25s-.06,0-.09-.02c-.02-.01-.03-.04-.02-.08l.05-.28s.03-.08.05-.09c.03-.01.06-.02.09-.02h3.08s.06,0,.08.02c.02.01.03.05.02.09l-.05.28s-.02.06-.04.08c-.02.02-.05.03-.1.03h-1.25l-.72,4.13h0ZM178.12.04h-.43c-.06,0-.11,0-.14.02-.03.01-.06.04-.09.09l-1.44,2.19s-.04.05-.05.06c-.01,0-.02.01-.04.01-.03,0-.05-.02-.06-.07l-.67-2.19s-.03-.07-.05-.09c-.02-.01-.07-.02-.13-.02h-.4c-.08,0-.14.02-.16.05-.03.04-.05.08-.05.13l-.78,4.44s0,.06.02.09c.02.03.05.04.09.04h.31c.05,0,.09-.01.11-.04.02-.03.03-.05.04-.09l.66-3.76s0-.05.02-.05c0,0,0,0,0,0,0,0,0,.01.02.04l.56,1.87c.02.06.05.11.08.14.03.03.09.04.17.04h.29c.08,0,.14-.01.19-.04.04-.03.09-.08.13-.14l1.24-1.87s.02-.02.02-.02c0,0,.01.01,0,.04l-.66,3.76c-.01.08.02.13.1.13h.31c.06,0,.1-.01.12-.04.02-.03.03-.05.04-.09l.78-4.44c.02-.12-.03-.19-.15-.19Z"/></svg>