<svg xmlns="http://www.w3.org/2000/svg" width="59.136" height="35.771" viewBox="0 0 59.136 35.771">
  <g id="OSS_logo_F_3_" data-name="OSS_logo_F(3)" transform="translate(-49.14 -22.32)">
    <path id="Path_16322" data-name="Path 16322" d="M71.511,133.406a9.107,9.107,0,0,1-.649,3.478,8.1,8.1,0,0,1-4.54,4.54,9.053,9.053,0,0,1-3.442.642H57.8a9.107,9.107,0,0,1-3.449-.642,8.158,8.158,0,0,1-2.742-1.8,8.352,8.352,0,0,1-1.812-2.742,9.026,9.026,0,0,1-.657-3.478V129.45a9.036,9.036,0,0,1,.657-3.471,8.127,8.127,0,0,1,4.555-4.54,9.026,9.026,0,0,1,3.449-.649h5.08a8.967,8.967,0,0,1,3.442.649,8.306,8.306,0,0,1,2.735,1.8,8.154,8.154,0,0,1,1.8,2.742,9.117,9.117,0,0,1,.649,3.471Zm-3.752-3.955a5.486,5.486,0,0,0-.353-2.014,4.346,4.346,0,0,0-2.539-2.539,5.4,5.4,0,0,0-1.984-.353H57.8a5.435,5.435,0,0,0-2,.353,4.532,4.532,0,0,0-1.552,1,4.406,4.406,0,0,0-1,1.544,5.481,5.481,0,0,0-.353,2.014v3.955a5.486,5.486,0,0,0,.353,2.014,4.393,4.393,0,0,0,1,1.544,4.535,4.535,0,0,0,1.552,1,5.435,5.435,0,0,0,2,.353h5.052a5.435,5.435,0,0,0,2-.353,4.514,4.514,0,0,0,1.552-1,4.393,4.393,0,0,0,1-1.544,5.486,5.486,0,0,0,.353-2.014V129.45Z" transform="translate(0 -83.975)" fill="#00c7b1"/>
    <path id="Path_16323" data-name="Path 16323" d="M344.755,133.738a5.836,5.836,0,0,0-.743-1.582,5.522,5.522,0,0,0-1.075-1.181,6.536,6.536,0,0,0-1.276-.814,6.5,6.5,0,0,0-2.632-.645h-6.252a2.172,2.172,0,0,1-1.666-.637,2.437,2.437,0,0,1-.6-1.737,2.843,2.843,0,0,1,.6-1.872,2.134,2.134,0,0,1,1.666-.659H343.14V120.8H332.776a6.606,6.606,0,0,0-1.962.33,5.783,5.783,0,0,0-1.955,1.07,5.889,5.889,0,0,0-1.5,1.92,6.927,6.927,0,0,0-.6,3.022,6.4,6.4,0,0,0,.6,2.9,5.767,5.767,0,0,0,1.5,1.92,5.84,5.84,0,0,0,1.955,1.063,6.606,6.606,0,0,0,1.962.33H339a2.473,2.473,0,0,1,.945.175,2.007,2.007,0,0,1,.721.5,2.243,2.243,0,0,1,.455.763,2.825,2.825,0,0,1,.159.967,2.783,2.783,0,0,1-.6,1.858,2.181,2.181,0,0,1-1.681.645H328.133v3.811H339a6.116,6.116,0,0,0,1.291-.147,6.276,6.276,0,0,0,1.348-.455,6.62,6.62,0,0,0,1.284-.792A5,5,0,0,0,344,139.508a6.141,6.141,0,0,0,.743-1.59,7.726,7.726,0,0,0,.281-2.158,6.9,6.9,0,0,0-.274-2.023" transform="translate(-236.753 -83.983)" fill="#00c7b1"/>
    <path id="Path_16324" data-name="Path 16324" d="M226.245,133.738a5.835,5.835,0,0,0-.743-1.582,5.522,5.522,0,0,0-1.075-1.181,6.535,6.535,0,0,0-1.276-.814,6.5,6.5,0,0,0-2.632-.645h-6.252a2.172,2.172,0,0,1-1.666-.637,2.437,2.437,0,0,1-.6-1.737,2.843,2.843,0,0,1,.6-1.872,2.133,2.133,0,0,1,1.666-.659H224.63V120.8H214.266a6.606,6.606,0,0,0-1.962.33,5.783,5.783,0,0,0-1.955,1.07,5.888,5.888,0,0,0-1.5,1.92,6.927,6.927,0,0,0-.6,3.022,6.4,6.4,0,0,0,.6,2.9,5.767,5.767,0,0,0,1.5,1.92,5.84,5.84,0,0,0,1.955,1.063,6.606,6.606,0,0,0,1.962.33h6.222a2.473,2.473,0,0,1,.945.175,2.007,2.007,0,0,1,.721.5,2.242,2.242,0,0,1,.455.763,2.824,2.824,0,0,1,.159.967,2.783,2.783,0,0,1-.6,1.858,2.181,2.181,0,0,1-1.681.645H209.623v3.811h10.865a6.116,6.116,0,0,0,1.291-.147,6.275,6.275,0,0,0,1.348-.455,6.619,6.619,0,0,0,1.284-.792,5,5,0,0,0,1.082-1.172,6.14,6.14,0,0,0,.743-1.59,7.727,7.727,0,0,0,.281-2.158,6.9,6.9,0,0,0-.274-2.023" transform="translate(-135.688 -83.983)" fill="#00c7b1"/>
    <g id="Group_1808" data-name="Group 1808" transform="translate(61.994 24.103)">
      <path id="Path_16325" data-name="Path 16325" d="M196.713,34.96a3.3,3.3,0,0,1,.043-.53c-.1.016-.19.034-.286.053a18.849,18.849,0,0,0-5,1.731,2.9,2.9,0,0,1,.88,1.416,18.725,18.725,0,0,1,3.162-1.1q.72-.179,1.451-.3A3.375,3.375,0,0,1,196.713,34.96Z" transform="translate(-183.372 -34.43)" fill="#00c7b1"/>
      <path id="Path_16326" data-name="Path 16326" d="M139.952,69.09a19.057,19.057,0,0,0-2.966,3.739q-.247.409-.473.827v0a.466.466,0,0,0-.053.212.471.471,0,0,0,.863.262s0,0,.006-.007a19.135,19.135,0,0,1,3.436-3.945A2.93,2.93,0,0,1,139.952,69.09Z" transform="translate(-136.46 -63.988)" fill="#00c7b1"/>
      <path id="Path_16327" data-name="Path 16327" d="M338.55,73.669v0c-.152-.28-.308-.556-.473-.827a18.993,18.993,0,0,0-2.965-3.739,2.926,2.926,0,0,1-.813,1.091,19.1,19.1,0,0,1,3.436,3.945s0,0,.006.007a.471.471,0,0,0,.863-.262A.486.486,0,0,0,338.55,73.669Z" transform="translate(-305.177 -63.996)" fill="#00c7b1"/>
      <path id="Path_16328" data-name="Path 16328" d="M276.705,36.231a18.849,18.849,0,0,0-5-1.731c-.094-.018-.19-.032-.284-.05a3.457,3.457,0,0,1,.041.527,3.35,3.35,0,0,1-.252,1.276c.487.081.973.178,1.453.3a18.731,18.731,0,0,1,3.162,1.1A2.9,2.9,0,0,1,276.705,36.231Z" transform="translate(-251.374 -34.447)" fill="#00c7b1"/>
    </g>
    <circle id="Ellipse_20" data-name="Ellipse 20" cx="2.313" cy="2.313" r="2.313" transform="translate(76.395 22.32)" fill="#00c7b1"/>
    <circle id="Ellipse_21" data-name="Ellipse 21" cx="1.85" cy="1.85" r="1.85" transform="translate(66.313 26.214)" fill="#00c7b1"/>
    <circle id="Ellipse_22" data-name="Ellipse 22" cx="1.85" cy="1.85" r="1.85" transform="translate(87.403 26.214)" fill="#00c7b1"/>
  </g>
</svg>
