<svg width="640" height="425" viewBox="0 0 640 425" fill="none" xmlns="http://www.w3.org/2000/svg">
<rect width="640" height="425" fill="#EEEEEE"/>
<g opacity="0.4">
<path d="M343.8 179C349.433 179 354 183.567 354 189.2V236.8C354 242.433 349.433 247 343.8 247H296.2C290.567 247 286 242.433 286 236.8V189.2C286 183.567 290.567 179 296.2 179H343.8ZM335.3 214.116C334.399 214.116 333.534 214.474 332.896 215.111L307.808 240.2H343.8C345.678 240.2 347.2 238.678 347.2 236.8V224.608L337.704 215.112C337.067 214.475 336.201 214.116 335.3 214.116ZM296.2 185.8C294.322 185.8 292.8 187.322 292.8 189.2V236.8C292.8 238.678 294.322 240.2 296.2 240.2H298.192L328.089 210.303C330.002 208.391 332.595 207.316 335.3 207.316C338.004 207.316 340.599 208.391 342.512 210.303L347.2 214.991V189.2C347.2 187.322 345.678 185.8 343.8 185.8H296.2ZM309.8 192.6C315.433 192.6 320 197.167 320 202.8C320 208.433 315.433 213 309.8 213C304.167 213 299.6 208.433 299.6 202.8C299.6 197.167 304.167 192.6 309.8 192.6ZM309.8 199.4C307.922 199.4 306.4 200.922 306.4 202.8C306.4 204.678 307.922 206.2 309.8 206.2C311.678 206.2 313.2 204.678 313.2 202.8C313.2 200.922 311.678 199.4 309.8 199.4Z" fill="#14151A"/>
</g>
</svg>
