<svg width="200" height="200" viewBox="0 0 200 200" fill="none" xmlns="http://www.w3.org/2000/svg">
<rect width="200" height="200" rx="100" fill="white"/>
<rect x="3.5" y="3.5" width="193" height="193" rx="96.5" stroke="black" stroke-opacity="0.4" stroke-width="7"/>
<g opacity="0.4">
<path d="M123.8 66C129.433 66 134 70.5669 134 76.2002V123.8C134 129.433 129.433 134 123.8 134H76.2002C70.5669 134 66 129.433 66 123.8V76.2002C66 70.5669 70.5669 66 76.2002 66H123.8ZM115.3 101.116C114.399 101.116 113.534 101.474 112.896 102.111L87.8076 127.2H123.8C125.678 127.2 127.2 125.678 127.2 123.8V111.608L117.704 102.112C117.067 101.475 116.201 101.116 115.3 101.116ZM76.2002 72.7998C74.3224 72.7998 72.7998 74.3224 72.7998 76.2002V123.8C72.7998 125.678 74.3224 127.2 76.2002 127.2H78.1924L108.089 97.3027C110.002 95.3908 112.595 94.3165 115.3 94.3164C118.004 94.3164 120.599 95.3905 122.512 97.3027L127.2 101.991V76.2002C127.2 74.3224 125.678 72.7998 123.8 72.7998H76.2002ZM89.7998 79.5996C95.433 79.5996 99.9999 84.1666 100 89.7998C100 95.4331 95.4331 100 89.7998 100C84.1666 99.9999 79.5996 95.433 79.5996 89.7998C79.5997 84.1667 84.1667 79.5997 89.7998 79.5996ZM89.7998 86.4004C87.9222 86.4005 86.4005 87.9222 86.4004 89.7998C86.4004 91.6775 87.9221 93.2001 89.7998 93.2002C91.6776 93.2002 93.2002 91.6776 93.2002 89.7998C93.2001 87.9221 91.6775 86.4004 89.7998 86.4004Z" fill="#14151A"/>
</g>
</svg>
