<svg width="398" height="543" viewBox="0 0 398 543" fill="none" xmlns="http://www.w3.org/2000/svg">
<g opacity="0.5" filter="url(#filter0_f_1042_239)">
<ellipse cx="198.974" cy="451.43" rx="145.96" ry="32.9809" transform="rotate(6.84717 198.974 451.43)" fill="black" fill-opacity="0.5"/>
</g>
<path d="M52.8877 10.0771L273.057 99.0314V451L52.8877 362.046V10.0771Z" fill="#EEEEEE"/>
<path fill-rule="evenodd" clip-rule="evenodd" d="M157.097 214.721C160.19 215.971 162.698 220.069 162.698 223.875C162.698 227.68 160.19 229.753 157.097 228.503C154.005 227.253 151.497 223.155 151.497 219.349C151.497 215.544 154.005 213.472 157.097 214.721ZM157.097 219.316C156.067 218.899 155.231 219.59 155.231 220.858C155.231 222.126 156.067 223.493 157.097 223.909C158.128 224.326 158.964 223.635 158.964 222.366C158.964 221.098 158.128 219.732 157.097 219.316Z" fill="#14151A" fill-opacity="0.4"/>
<path fill-rule="evenodd" clip-rule="evenodd" d="M175.765 213.076C178.858 214.326 181.366 218.424 181.366 222.23V254.386C181.366 258.192 178.858 260.264 175.765 259.014L149.631 248.455C146.538 247.206 144.03 243.107 144.03 239.302V207.145C144.03 203.339 146.538 201.267 149.631 202.517L175.765 213.076ZM171.098 234.914C170.603 234.714 170.129 234.764 169.779 235.053L156.004 246.436L175.765 254.421C176.796 254.837 177.632 254.146 177.632 252.878V244.642L172.418 236.12C172.068 235.548 171.593 235.114 171.098 234.914ZM149.631 207.111C148.6 206.694 147.764 207.385 147.764 208.654V240.81C147.764 242.079 148.6 243.445 149.631 243.862L150.724 244.304L167.139 230.738C168.189 229.87 169.613 229.72 171.098 230.32C172.583 230.92 174.008 232.221 175.058 233.937L177.632 238.145V220.721C177.632 219.453 176.796 218.086 175.765 217.67L149.631 207.111Z" fill="#14151A" fill-opacity="0.4"/>
<path d="M52.8877 10.0767L131.211 0L349.694 89.7746L273.202 98.9353L52.8877 10.0767Z" fill="#E1E1E1"/>
<path d="M272.744 98.9351L349.694 89.7744V434.606L272.744 450.705V98.9351Z" fill="#D7D7D7"/>
<defs>
<filter id="filter0_f_1042_239" x="0" y="360.341" width="397.947" height="182.18" filterUnits="userSpaceOnUse" color-interpolation-filters="sRGB">
<feFlood flood-opacity="0" result="BackgroundImageFix"/>
<feBlend mode="normal" in="SourceGraphic" in2="BackgroundImageFix" result="shape"/>
<feGaussianBlur stdDeviation="27" result="effect1_foregroundBlur_1042_239"/>
</filter>
</defs>
</svg>
