<svg width="480" height="480" viewBox="0 0 480 480" fill="none" xmlns="http://www.w3.org/2000/svg">
<rect width="480" height="480" rx="60" fill="#EEEEEE"/>
<g opacity="0.4">
<path d="M263.8 206C269.433 206 274 210.567 274 216.2V263.8C274 269.433 269.433 274 263.8 274H216.2C210.567 274 206 269.433 206 263.8V216.2C206 210.567 210.567 206 216.2 206H263.8ZM255.3 241.116C254.399 241.116 253.534 241.474 252.896 242.111L227.808 267.2H263.8C265.678 267.2 267.2 265.678 267.2 263.8V251.608L257.704 242.112C257.067 241.475 256.201 241.116 255.3 241.116ZM216.2 212.8C214.322 212.8 212.8 214.322 212.8 216.2V263.8C212.8 265.678 214.322 267.2 216.2 267.2H218.192L248.089 237.303C250.002 235.391 252.595 234.316 255.3 234.316C258.004 234.316 260.599 235.391 262.512 237.303L267.2 241.991V216.2C267.2 214.322 265.678 212.8 263.8 212.8H216.2ZM229.8 219.6C235.433 219.6 240 224.167 240 229.8C240 235.433 235.433 240 229.8 240C224.167 240 219.6 235.433 219.6 229.8C219.6 224.167 224.167 219.6 229.8 219.6ZM229.8 226.4C227.922 226.4 226.4 227.922 226.4 229.8C226.4 231.678 227.922 233.2 229.8 233.2C231.678 233.2 233.2 231.678 233.2 229.8C233.2 227.922 231.678 226.4 229.8 226.4Z" fill="#14151A"/>
</g>
</svg>
