<svg width="640" height="640" viewBox="0 0 640 640" fill="none" xmlns="http://www.w3.org/2000/svg">
<rect width="640" height="640" fill="#EEEEEE"/>
<g opacity="0.4">
<path d="M343.8 286C349.433 286 354 290.567 354 296.2V343.8C354 349.433 349.433 354 343.8 354H296.2C290.567 354 286 349.433 286 343.8V296.2C286 290.567 290.567 286 296.2 286H343.8ZM335.3 321.116C334.399 321.116 333.534 321.474 332.896 322.111L307.808 347.2H343.8C345.678 347.2 347.2 345.678 347.2 343.8V331.608L337.704 322.112C337.067 321.475 336.201 321.116 335.3 321.116ZM296.2 292.8C294.322 292.8 292.8 294.322 292.8 296.2V343.8C292.8 345.678 294.322 347.2 296.2 347.2H298.192L328.089 317.303C330.002 315.391 332.595 314.316 335.3 314.316C338.004 314.316 340.599 315.391 342.512 317.303L347.2 321.991V296.2C347.2 294.322 345.678 292.8 343.8 292.8H296.2ZM309.8 299.6C315.433 299.6 320 304.167 320 309.8C320 315.433 315.433 320 309.8 320C304.167 320 299.6 315.433 299.6 309.8C299.6 304.167 304.167 299.6 309.8 299.6ZM309.8 306.4C307.922 306.4 306.4 307.922 306.4 309.8C306.4 311.678 307.922 313.2 309.8 313.2C311.678 313.2 313.2 311.678 313.2 309.8C313.2 307.922 311.678 306.4 309.8 306.4Z" fill="#14151A"/>
</g>
</svg>
