<svg width="580" height="640" viewBox="0 0 580 640" fill="none" xmlns="http://www.w3.org/2000/svg">
<g clip-path="url(#clip0_1042_248)">
<path d="M120 0H580V640H0L120 0Z" fill="#EEEEEE"/>
<g opacity="0.4">
<path d="M333.8 286C339.433 286 344 290.567 344 296.2V343.8C344 349.433 339.433 354 333.8 354H286.2C280.567 354 276 349.433 276 343.8V296.2C276 290.567 280.567 286 286.2 286H333.8ZM325.3 321.116C324.399 321.116 323.534 321.474 322.896 322.111L297.808 347.2H333.8C335.678 347.2 337.2 345.678 337.2 343.8V331.608L327.704 322.112C327.067 321.475 326.201 321.116 325.3 321.116ZM286.2 292.8C284.322 292.8 282.8 294.322 282.8 296.2V343.8C282.8 345.678 284.322 347.2 286.2 347.2H288.192L318.089 317.303C320.002 315.391 322.595 314.316 325.3 314.316C328.004 314.316 330.599 315.391 332.512 317.303L337.2 321.991V296.2C337.2 294.322 335.678 292.8 333.8 292.8H286.2ZM299.8 299.6C305.433 299.6 310 304.167 310 309.8C310 315.433 305.433 320 299.8 320C294.167 320 289.6 315.433 289.6 309.8C289.6 304.167 294.167 299.6 299.8 299.6ZM299.8 306.4C297.922 306.4 296.4 307.922 296.4 309.8C296.4 311.678 297.922 313.2 299.8 313.2C301.678 313.2 303.2 311.678 303.2 309.8C303.2 307.922 301.678 306.4 299.8 306.4Z" fill="#14151A"/>
</g>
</g>
<defs>
<clipPath id="clip0_1042_248">
<path d="M0 0H580V640H0V0Z" fill="white"/>
</clipPath>
</defs>
</svg>
