<svg width="480" height="547" viewBox="0 0 480 547" fill="none" xmlns="http://www.w3.org/2000/svg">
<rect width="480" height="547" fill="#E5E5E5"/>
<g opacity="0.4">
<path d="M263.8 240C269.433 240 274 244.567 274 250.2V297.8C274 303.433 269.433 308 263.8 308H216.2C210.567 308 206 303.433 206 297.8V250.2C206 244.567 210.567 240 216.2 240H263.8ZM255.3 275.116C254.399 275.116 253.534 275.474 252.896 276.111L227.808 301.2H263.8C265.678 301.2 267.2 299.678 267.2 297.8V285.608L257.704 276.112C257.067 275.475 256.201 275.116 255.3 275.116ZM216.2 246.8C214.322 246.8 212.8 248.322 212.8 250.2V297.8C212.8 299.678 214.322 301.2 216.2 301.2H218.192L248.089 271.303C250.002 269.391 252.595 268.316 255.3 268.316C258.004 268.316 260.599 269.391 262.512 271.303L267.2 275.991V250.2C267.2 248.322 265.678 246.8 263.8 246.8H216.2ZM229.8 253.6C235.433 253.6 240 258.167 240 263.8C240 269.433 235.433 274 229.8 274C224.167 274 219.6 269.433 219.6 263.8C219.6 258.167 224.167 253.6 229.8 253.6ZM229.8 260.4C227.922 260.4 226.4 261.922 226.4 263.8C226.4 265.678 227.922 267.2 229.8 267.2C231.678 267.2 233.2 265.678 233.2 263.8C233.2 261.922 231.678 260.4 229.8 260.4Z" fill="#14151A"/>
</g>
</svg>
