<svg width="824" height="547" viewBox="0 0 824 547" fill="none" xmlns="http://www.w3.org/2000/svg">
<rect width="824" height="547" fill="#EEEEEE"/>
<g opacity="0.4">
<path d="M435.8 240C441.433 240 446 244.567 446 250.2V297.8C446 303.433 441.433 308 435.8 308H388.2C382.567 308 378 303.433 378 297.8V250.2C378 244.567 382.567 240 388.2 240H435.8ZM427.3 275.116C426.399 275.116 425.534 275.474 424.896 276.111L399.808 301.2H435.8C437.678 301.2 439.2 299.678 439.2 297.8V285.608L429.704 276.112C429.067 275.475 428.201 275.116 427.3 275.116ZM388.2 246.8C386.322 246.8 384.8 248.322 384.8 250.2V297.8C384.8 299.678 386.322 301.2 388.2 301.2H390.192L420.089 271.303C422.002 269.391 424.595 268.316 427.3 268.316C430.004 268.316 432.599 269.391 434.512 271.303L439.2 275.991V250.2C439.2 248.322 437.678 246.8 435.8 246.8H388.2ZM401.8 253.6C407.433 253.6 412 258.167 412 263.8C412 269.433 407.433 274 401.8 274C396.167 274 391.6 269.433 391.6 263.8C391.6 258.167 396.167 253.6 401.8 253.6ZM401.8 260.4C399.922 260.4 398.4 261.922 398.4 263.8C398.4 265.678 399.922 267.2 401.8 267.2C403.678 267.2 405.2 265.678 405.2 263.8C405.2 261.922 403.678 260.4 401.8 260.4Z" fill="#14151A"/>
</g>
</svg>
