<svg width="480" height="640" viewBox="0 0 480 640" fill="none" xmlns="http://www.w3.org/2000/svg">
<rect width="480" height="640" fill="#F5F5F5"/>
<g opacity="0.4">
<path d="M263.8 286C269.433 286 274 290.567 274 296.2V343.8C274 349.433 269.433 354 263.8 354H216.2C210.567 354 206 349.433 206 343.8V296.2C206 290.567 210.567 286 216.2 286H263.8ZM255.3 321.116C254.399 321.116 253.534 321.474 252.896 322.111L227.808 347.2H263.8C265.678 347.2 267.2 345.678 267.2 343.8V331.608L257.704 322.112C257.067 321.475 256.201 321.116 255.3 321.116ZM216.2 292.8C214.322 292.8 212.8 294.322 212.8 296.2V343.8C212.8 345.678 214.322 347.2 216.2 347.2H218.192L248.089 317.303C250.002 315.391 252.595 314.316 255.3 314.316C258.004 314.316 260.599 315.391 262.512 317.303L267.2 321.991V296.2C267.2 294.322 265.678 292.8 263.8 292.8H216.2ZM229.8 299.6C235.433 299.6 240 304.167 240 309.8C240 315.433 235.433 320 229.8 320C224.167 320 219.6 315.433 219.6 309.8C219.6 304.167 224.167 299.6 229.8 299.6ZM229.8 306.4C227.922 306.4 226.4 307.922 226.4 309.8C226.4 311.678 227.922 313.2 229.8 313.2C231.678 313.2 233.2 311.678 233.2 309.8C233.2 307.922 231.678 306.4 229.8 306.4Z" fill="#14151A"/>
</g>
</svg>
