<svg width="800" height="800" viewBox="0 0 800 800" fill="none" xmlns="http://www.w3.org/2000/svg">
<rect width="800" height="800" fill="white"/>
<g opacity="0.5" filter="url(#filter0_f_1044_328)">
<ellipse cx="398.7" cy="633.153" rx="169.765" ry="38.3597" transform="rotate(6.84717 398.7 633.153)" fill="black" fill-opacity="0.5"/>
</g>
<path d="M228.788 119.819L484.865 223.281V632.652L228.788 529.191V119.819Z" fill="#EEEEEE"/>
<path fill-rule="evenodd" clip-rule="evenodd" d="M349.993 357.839C353.591 359.292 356.507 364.059 356.507 368.485C356.507 372.911 353.591 375.321 349.993 373.868C346.396 372.415 343.48 367.648 343.48 363.222C343.48 358.795 346.396 356.385 349.993 357.839ZM349.993 363.182C348.794 362.698 347.823 363.501 347.823 364.976C347.823 366.452 348.794 368.041 349.993 368.525C351.193 369.01 352.165 368.206 352.165 366.731C352.165 365.255 351.192 363.667 349.993 363.182Z" fill="#14151A" fill-opacity="0.4"/>
<path fill-rule="evenodd" clip-rule="evenodd" d="M371.706 355.925C375.303 357.379 378.219 362.145 378.219 366.572V403.973C378.219 408.399 375.303 410.809 371.706 409.356L341.309 397.074C337.711 395.621 334.795 390.854 334.795 386.428V349.027C334.795 344.601 337.711 342.191 341.309 343.644L371.706 355.925ZM366.278 381.324C365.702 381.092 365.15 381.15 364.743 381.486L348.721 394.726L371.706 404.013C372.905 404.497 373.877 403.694 373.877 402.218V392.639L367.813 382.727C367.406 382.062 366.853 381.557 366.278 381.324ZM341.309 348.987C340.11 348.502 339.137 349.306 339.137 350.781V388.182C339.137 389.658 340.11 391.247 341.309 391.732L342.581 392.246L361.673 376.467C362.894 375.459 364.551 375.284 366.278 375.981C368.005 376.679 369.662 378.193 370.883 380.189L373.877 385.082V364.817C373.877 363.342 372.905 361.753 371.706 361.268L341.309 348.987Z" fill="#14151A" fill-opacity="0.4"/>
<path d="M228.788 119.819L319.886 108.099L574 212.515L485.033 223.169L228.788 119.819Z" fill="#E1E1E1"/>
<path d="M484.501 223.169L574 212.515V613.584L484.501 632.309V223.169Z" fill="#D7D7D7"/>
<defs>
<filter id="filter0_f_1044_328" x="176.082" y="536.015" width="445.235" height="194.276" filterUnits="userSpaceOnUse" color-interpolation-filters="sRGB">
<feFlood flood-opacity="0" result="BackgroundImageFix"/>
<feBlend mode="normal" in="SourceGraphic" in2="BackgroundImageFix" result="shape"/>
<feGaussianBlur stdDeviation="27" result="effect1_foregroundBlur_1044_328"/>
</filter>
</defs>
</svg>
