<svg width="121" height="24" viewBox="0 0 121 24" fill="none" xmlns="http://www.w3.org/2000/svg">
<path d="M0 2.68563C0 1.2024 1.29081 0 2.88309 0H15.857V5.43841C15.857 10.5926 11.3715 14.771 5.83827 14.771H0V2.68563Z" fill="white"/>
<path d="M19.5639 8.578C20.7387 6.61972 22.9586 5.40646 25.3669 5.40646C25.7165 5.40646 26 5.6705 26 5.99621V12.5152C26 13.7352 25.4908 14.9073 24.58 15.7839L18.1246 21.9967C17.1741 22.9115 15.8658 23.4279 14.4992 23.4279H7.45594C6.80041 23.4279 6.48522 22.6789 6.96615 22.264L13.214 16.8734C15.1001 15.2461 16.6996 13.3524 17.9537 11.2619L19.5639 8.578Z" fill="white"/>
<path d="M37.068 16.421C36.204 16.421 35.412 16.253 34.692 15.917C33.984 15.569 33.42 15.077 33 14.441L34.206 13.307C34.47 13.823 34.848 14.225 35.34 14.513C35.844 14.801 36.426 14.945 37.086 14.945C37.602 14.945 38.022 14.843 38.346 14.639C38.67 14.435 38.832 14.153 38.832 13.793C38.832 13.553 38.754 13.349 38.598 13.181C38.454 13.001 38.166 12.863 37.734 12.767L36.024 12.389C35.076 12.173 34.398 11.855 33.99 11.435C33.594 11.015 33.396 10.481 33.396 9.83297C33.396 9.34097 33.534 8.89097 33.81 8.48297C34.098 8.06297 34.512 7.72097 35.052 7.45697C35.604 7.19297 36.27 7.06097 37.05 7.06097C37.914 7.06097 38.652 7.22297 39.264 7.54697C39.888 7.87097 40.362 8.32697 40.686 8.91497L39.48 9.97697C39.264 9.48497 38.928 9.12497 38.472 8.89697C38.028 8.65697 37.572 8.53697 37.104 8.53697C36.732 8.53697 36.408 8.58497 36.132 8.68097C35.868 8.77697 35.664 8.91497 35.52 9.09497C35.388 9.27497 35.322 9.47897 35.322 9.70697C35.322 9.94697 35.412 10.163 35.592 10.355C35.772 10.547 36.084 10.691 36.528 10.787L38.454 11.201C39.294 11.381 39.888 11.669 40.236 12.065C40.596 12.461 40.776 12.953 40.776 13.541C40.776 14.393 40.446 15.089 39.786 15.629C39.138 16.157 38.232 16.421 37.068 16.421Z" fill="white"/>
<path d="M50.72 7.24097L46.976 17.213C46.736 17.885 46.466 18.431 46.166 18.851C45.878 19.283 45.53 19.601 45.122 19.805C44.714 20.009 44.222 20.111 43.646 20.111C43.226 20.111 42.836 20.051 42.476 19.931C42.116 19.823 41.804 19.673 41.54 19.481L42.008 18.023C42.212 18.215 42.44 18.353 42.692 18.437C42.944 18.521 43.214 18.563 43.502 18.563C43.862 18.563 44.162 18.473 44.402 18.293C44.642 18.113 44.852 17.777 45.032 17.285L45.41 16.295L44.474 14.045L41.774 7.24097H43.934L45.86 13.001L46.328 14.639L46.886 12.875L48.722 7.24097H50.72Z" fill="white"/>
<path d="M55.9019 16.421C55.0379 16.421 54.2459 16.253 53.5259 15.917C52.8179 15.569 52.2539 15.077 51.8339 14.441L53.0399 13.307C53.3039 13.823 53.6819 14.225 54.1739 14.513C54.6779 14.801 55.2599 14.945 55.9199 14.945C56.4359 14.945 56.8559 14.843 57.1799 14.639C57.5039 14.435 57.6659 14.153 57.6659 13.793C57.6659 13.553 57.5879 13.349 57.4319 13.181C57.2879 13.001 56.9999 12.863 56.5679 12.767L54.8579 12.389C53.9099 12.173 53.2319 11.855 52.8239 11.435C52.4279 11.015 52.2299 10.481 52.2299 9.83297C52.2299 9.34097 52.3679 8.89097 52.6439 8.48297C52.9319 8.06297 53.3459 7.72097 53.8859 7.45697C54.4379 7.19297 55.1039 7.06097 55.8839 7.06097C56.7479 7.06097 57.4859 7.22297 58.0979 7.54697C58.7219 7.87097 59.1959 8.32697 59.5199 8.91497L58.3139 9.97697C58.0979 9.48497 57.7619 9.12497 57.3059 8.89697C56.8619 8.65697 56.4059 8.53697 55.9379 8.53697C55.5659 8.53697 55.2419 8.58497 54.9659 8.68097C54.7019 8.77697 54.4979 8.91497 54.3539 9.09497C54.2219 9.27497 54.1559 9.47897 54.1559 9.70697C54.1559 9.94697 54.2459 10.163 54.4259 10.355C54.6059 10.547 54.9179 10.691 55.3619 10.787L57.2879 11.201C58.1279 11.381 58.7219 11.669 59.0699 12.065C59.4299 12.461 59.6099 12.953 59.6099 13.541C59.6099 14.393 59.2799 15.089 58.6199 15.629C57.9719 16.157 57.0659 16.421 55.9019 16.421Z" fill="white"/>
<path d="M64.9328 4.57697V13.505C64.9328 13.961 65.0468 14.303 65.2748 14.531C65.5028 14.747 65.8088 14.855 66.1928 14.855C66.5048 14.855 66.7688 14.807 66.9848 14.711C67.2128 14.603 67.4168 14.465 67.5968 14.297L67.9928 15.665C67.7168 15.905 67.3868 16.091 67.0028 16.223C66.6188 16.355 66.1988 16.421 65.7428 16.421C64.9508 16.421 64.2908 16.223 63.7628 15.827C63.2468 15.431 62.9888 14.765 62.9888 13.829V5.11697L64.9328 4.57697ZM67.8488 7.24097V8.75297H61.3508V7.24097H67.8488Z" fill="white"/>
<path d="M74.0638 16.421C73.1878 16.421 72.4198 16.235 71.7598 15.863C71.0998 15.491 70.5838 14.957 70.2118 14.261C69.8398 13.553 69.6538 12.713 69.6538 11.741C69.6538 10.757 69.8338 9.91697 70.1938 9.22097C70.5658 8.52497 71.0758 7.99097 71.7238 7.61897C72.3838 7.24697 73.1278 7.06097 73.9558 7.06097C74.8078 7.06097 75.5338 7.24097 76.1338 7.60097C76.7338 7.96097 77.1898 8.45897 77.5018 9.09497C77.8258 9.71897 77.9878 10.439 77.9878 11.255C77.9878 11.459 77.9818 11.645 77.9698 11.813C77.9578 11.981 77.9458 12.125 77.9338 12.245H70.9138V10.913H77.0698L76.1158 11.201C76.1158 10.637 76.0258 10.163 75.8458 9.77897C75.6778 9.38297 75.4318 9.08297 75.1078 8.87897C74.7838 8.67497 74.3998 8.57297 73.9558 8.57297C73.4518 8.57297 73.0138 8.69897 72.6418 8.95097C72.2818 9.19097 72.0058 9.55097 71.8138 10.031C71.6218 10.499 71.5258 11.075 71.5258 11.759C71.5258 12.443 71.6278 13.019 71.8318 13.487C72.0358 13.955 72.3298 14.309 72.7138 14.549C73.0978 14.789 73.5478 14.909 74.0638 14.909C74.6158 14.909 75.0718 14.795 75.4318 14.567C75.7918 14.327 76.0738 14.003 76.2778 13.595L77.8258 14.279C77.6218 14.723 77.3338 15.107 76.9618 15.431C76.6018 15.755 76.1758 16.001 75.6838 16.169C75.1918 16.337 74.6518 16.421 74.0638 16.421Z" fill="white"/>
<path d="M80.8596 16.241V7.24097H82.5696L82.6596 8.84297C82.9596 8.25497 83.3736 7.81097 83.9016 7.51097C84.4296 7.21097 84.9996 7.06097 85.6116 7.06097C86.2596 7.06097 86.8476 7.21697 87.3756 7.52897C87.9156 7.82897 88.3116 8.28497 88.5636 8.89697C88.7436 8.48897 88.9956 8.15297 89.3196 7.88897C89.6556 7.61297 90.0276 7.40897 90.4356 7.27697C90.8436 7.13297 91.2516 7.06097 91.6596 7.06097C92.2356 7.06097 92.7636 7.18097 93.2436 7.42097C93.7356 7.66097 94.1316 8.02697 94.4316 8.51897C94.7316 9.01097 94.8816 9.63497 94.8816 10.391V16.241H92.9376V10.715C92.9376 9.98297 92.7636 9.45497 92.4156 9.13097C92.0676 8.80697 91.6356 8.64497 91.1196 8.64497C90.7116 8.64497 90.3336 8.74697 89.9856 8.95097C89.6376 9.15497 89.3616 9.46097 89.1576 9.86897C88.9536 10.265 88.8516 10.745 88.8516 11.309V16.241H86.9076V10.715C86.9076 9.98297 86.7276 9.45497 86.3676 9.13097C86.0196 8.80697 85.5876 8.64497 85.0716 8.64497C84.7236 8.64497 84.3696 8.74097 84.0096 8.93297C83.6616 9.12497 83.3736 9.42497 83.1456 9.83297C82.9176 10.241 82.8036 10.769 82.8036 11.417V16.241H80.8596Z" fill="white"/>
<path d="M100.201 7.24097V16.241H98.257V7.24097H100.201ZM99.283 5.76497C98.851 5.76497 98.515 5.66297 98.275 5.45897C98.047 5.24297 97.933 4.93697 97.933 4.54097C97.933 4.14497 98.047 3.84497 98.275 3.64097C98.515 3.42497 98.851 3.31697 99.283 3.31697C99.715 3.31697 100.045 3.42497 100.273 3.64097C100.501 3.84497 100.615 4.14497 100.615 4.54097C100.615 4.93697 100.501 5.24297 100.273 5.45897C100.045 5.66297 99.715 5.76497 99.283 5.76497Z" fill="white"/>
<path d="M107.411 7.06097C108.119 7.06097 108.725 7.17497 109.229 7.40297C109.745 7.61897 110.165 7.91897 110.489 8.30297C110.825 8.67497 111.071 9.10697 111.227 9.59897L109.409 10.319C109.277 9.74297 109.043 9.31097 108.707 9.02297C108.383 8.72297 107.951 8.57297 107.411 8.57297C106.907 8.57297 106.475 8.69897 106.115 8.95097C105.755 9.19097 105.479 9.55097 105.287 10.031C105.095 10.499 104.999 11.075 104.999 11.759C104.999 12.431 105.095 13.007 105.287 13.487C105.491 13.955 105.773 14.309 106.133 14.549C106.505 14.789 106.937 14.909 107.429 14.909C107.825 14.909 108.167 14.843 108.455 14.711C108.743 14.567 108.977 14.363 109.157 14.099C109.337 13.835 109.463 13.517 109.535 13.145L111.299 13.739C111.143 14.279 110.891 14.753 110.543 15.161C110.207 15.557 109.775 15.869 109.247 16.097C108.719 16.313 108.119 16.421 107.447 16.421C106.571 16.421 105.803 16.235 105.143 15.863C104.483 15.491 103.967 14.957 103.595 14.261C103.235 13.553 103.055 12.713 103.055 11.741C103.055 10.769 103.241 9.93497 103.613 9.23897C103.985 8.53097 104.495 7.99097 105.143 7.61897C105.803 7.24697 106.559 7.06097 107.411 7.06097Z" fill="white"/>
<path d="M117.273 16.421C116.409 16.421 115.617 16.253 114.897 15.917C114.189 15.569 113.625 15.077 113.205 14.441L114.411 13.307C114.675 13.823 115.053 14.225 115.545 14.513C116.049 14.801 116.631 14.945 117.291 14.945C117.807 14.945 118.227 14.843 118.551 14.639C118.875 14.435 119.037 14.153 119.037 13.793C119.037 13.553 118.959 13.349 118.803 13.181C118.659 13.001 118.371 12.863 117.939 12.767L116.229 12.389C115.281 12.173 114.603 11.855 114.195 11.435C113.799 11.015 113.601 10.481 113.601 9.83297C113.601 9.34097 113.739 8.89097 114.015 8.48297C114.303 8.06297 114.717 7.72097 115.257 7.45697C115.809 7.19297 116.475 7.06097 117.255 7.06097C118.119 7.06097 118.857 7.22297 119.469 7.54697C120.093 7.87097 120.567 8.32697 120.891 8.91497L119.685 9.97697C119.469 9.48497 119.133 9.12497 118.677 8.89697C118.233 8.65697 117.777 8.53697 117.309 8.53697C116.937 8.53697 116.613 8.58497 116.337 8.68097C116.073 8.77697 115.869 8.91497 115.725 9.09497C115.593 9.27497 115.527 9.47897 115.527 9.70697C115.527 9.94697 115.617 10.163 115.797 10.355C115.977 10.547 116.289 10.691 116.733 10.787L118.659 11.201C119.499 11.381 120.093 11.669 120.441 12.065C120.801 12.461 120.981 12.953 120.981 13.541C120.981 14.393 120.651 15.089 119.991 15.629C119.343 16.157 118.437 16.421 117.273 16.421Z" fill="white"/>
</svg>
