<svg width="534" height="163" viewBox="0 0 534 163" fill="none" xmlns="http://www.w3.org/2000/svg">
<path d="M107.067 4.79999C61.8667 10.2667 18.9333 24 8.53333 36.4C-1.33334 48.1333 14.5333 62.5333 43.2 67.8667L49.7333 69.0667L46.2667 66.1333C38.6667 59.7333 38.9333 53.6 46.9333 47.6C62 36.2667 92.5333 27.4667 136.667 21.7333C151.2 19.8667 164.4 19.3333 196 19.3333C236.8 19.3333 255.2 20.8 282 26C287.2 26.9333 291.467 27.6 291.733 27.3333C292 27.2 286.933 25.0667 280.667 22.8C256 13.8667 224.4 7.19999 192.8 4.13332C173.067 2.13332 125.333 2.53332 107.067 4.79999Z" fill="#5B6770"/>
<path d="M161.333 38.6667C151.6 40.8 141.067 46.6667 132.933 54.8C112.533 75.3333 110.933 105.2 129.467 121.867C137.6 129.2 145.6 132 158 132C201.867 132 230 79.0667 201.6 49.8667C192.4 40.4 175.6 35.7333 161.333 38.6667ZM182 55.3333C190.8 59.0667 197.2 69.3333 197.333 80C197.333 87.4667 191.333 100.4 185.2 106.267C170.4 120.133 148.133 120.8 138.4 107.867C128.8 94.9333 130.8 78.5333 143.867 64.9333C154.533 53.6 169.067 50 182 55.3333Z" fill="#5B6770"/>
<path d="M294 60.9333C292.8 70.9333 292.267 72 288.533 72C286 72 285.333 72.6666 285.333 75.6C285.333 77.7333 284.933 80.6666 284.533 82.2666C283.867 84.8 284.267 85.3333 286.533 85.3333C288.4 85.3333 289.333 86.1333 289.333 88C289.333 90.6666 284.533 122 283.333 127.6C282.667 130.533 283.067 130.667 289.733 130.667H296.933L299.867 111.6C304.267 83.2 303.467 85.3333 308.8 85.3333C312.533 85.3333 313.467 84.8 314 82C314.4 80.1333 314.933 77.2 315.333 75.3333C316 72.2666 315.733 72 311.2 72H306.4L307.333 64.4C307.867 60.2666 308.533 56.1333 308.933 55.0666C309.467 53.7333 307.867 53.3333 302.267 53.3333H294.933L294 60.9333Z" fill="#5B6770"/>
<path d="M243.067 73.3333C238.4 75.4667 237.333 75.4667 237.333 74C237.333 72.5333 235.6 72 230.667 72C224.933 72 224 72.4 223.333 74.9333C222.933 76.6667 220 95.0667 216.667 116C213.333 136.933 210.4 155.333 210 156.933C209.333 159.867 209.733 160 216.533 160H223.733L225.867 144.933C229.067 123.733 228.533 124.8 234.4 128.933C238.667 131.867 240.4 132.133 247.067 131.6C265.733 130 278.533 113.6 277.067 93.2C275.733 75.4667 259.333 65.8667 243.067 73.3333ZM257.6 85.4667C261.867 87.7333 264.267 95.0667 262.8 101.333C261.2 108.267 258.267 112.8 252.933 116C245.333 120.667 237.6 119.067 234 112C231.333 106.667 231.467 101.867 234.8 95.2C239.2 85.8667 249.867 81.3333 257.6 85.4667Z" fill="#5B6770"/>
<path d="M338.267 72.5333C327.2 76.6666 319.2 84.6666 315.2 95.6C311.333 106.533 314.267 118.8 322.533 125.733C337.067 138 361.6 130.933 371.2 111.733C377.867 98.4 374.667 82.2666 363.867 75.0666C357.6 70.9333 345.733 69.7333 338.267 72.5333ZM354.533 86C368.267 93.0666 358 118.667 341.333 118.667C324.533 118.667 322.667 95.0666 338.667 86.5333C344.267 83.4666 349.467 83.3333 354.533 86Z" fill="#5B6770"/>
<path d="M405.067 72.8C402.933 73.8666 401.333 74.1333 401.333 73.3333C401.333 72.5333 398.133 72 394 72C387.867 72 386.667 72.4 386.667 74.2666C386.533 75.6 384.533 88.8 382.133 103.6L377.867 130.667H384.933C388.8 130.667 392 130.267 392 129.6C392 125.333 397.733 94.9333 399.2 91.3333C402.267 84.1333 410.533 81.4666 413.333 86.6666C414.533 88.8 414.133 93.8666 412 107.733C410.4 117.733 408.8 127.067 408.533 128.267C407.867 130.4 408.8 130.667 415.067 130.667H422.4L424.667 115.6C427.6 95.6 428.933 90.9333 432.667 87.2C436.667 83.3333 442 83.0666 444 86.6666C445.333 89.0666 442.8 109.6 439.2 126.933C438.4 130.667 438.533 130.667 445.6 130.667H452.8L455.733 111.6C457.333 101.2 458.667 90.2666 458.667 87.3333C458.667 80.8 454.533 73.7333 449.6 71.8666C444.8 70 433.6 71.3333 429.333 74.4C426 76.8 425.867 76.8 421.467 73.7333C416.267 70.2666 410.267 69.8666 405.067 72.8Z" fill="#5B6770"/>
<path d="M489.067 71.8667C474.4 76.5333 465.333 90.1333 465.333 106.933C465.333 115.6 467.2 120.133 472.933 125.6C480.133 132.533 490.267 133.867 499.333 129.333C505.6 126.133 505.333 126.133 505.333 128.667C505.333 130.133 506.933 130.667 512 130.667C518.4 130.667 518.533 130.533 519.333 126.267C519.733 124 521.6 112.4 523.333 100.667C525.2 88.9333 527.067 77.7333 527.467 75.6C528.267 72 528.133 72 520.8 72C515.067 72 513.333 72.4 513.333 74C513.333 76.5333 512.133 76.5333 509.067 73.7333C506.267 71.2 494.533 70.1333 489.067 71.8667ZM506 87.2C510.933 92.1333 511.6 98.8 507.867 106.267C498.533 125.067 476.4 121.333 479.333 101.467C480 96.8 481.467 94.1333 486 89.7333C490.8 84.8 492.4 84 497.2 84C501.333 84 503.6 84.8 506 87.2Z" fill="#5B6770"/>
</svg>